<svg xmlns="http://www.w3.org/2000/svg" width="112" height="102" viewBox="-1.0 -1.0 112 102"><rect stroke-width="2" stroke="black" x="0" y="0" width="20" height="20" fill="#8A1C7C" /><rect stroke-width="2" stroke="black" x="20" y="0" width="20" height="20" fill="#c48dbd" /><rect stroke-width="2" stroke="black" x="40" y="0" width="20" height="20" fill="#8A1C7C" /><rect stroke-width="2" stroke="black" x="60" y="0" width="50" height="50" fill="#FCD757" /><rect stroke-width="2" stroke="black" x="0" y="20" width="20" height="20" fill="#c48dbd" /><rect stroke-width="2" stroke="black" x="20" y="20" width="20" height="20" fill="#8A1C7C" /><rect stroke-width="2" stroke="black" x="40" y="20" width="20" height="20" fill="#c48dbd" /><rect stroke-width="2" stroke="black" x="0" y="40" width="20" height="20" fill="#8A1C7C" /><rect stroke-width="2" stroke="black" x="20" y="40" width="20" height="20" fill="#c48dbd" /><rect stroke-width="2" stroke="black" x="40" y="40" width="20" height="20" fill="#8A1C7C" /><rect stroke-width="2" stroke="black" x="60" y="50" width="50" height="50" fill="#fdebab" /><rect stroke-width="2" stroke="black" x="0" y="60" width="20" height="20" fill="#c48dbd" /><rect stroke-width="2" stroke="black" x="20" y="60" width="20" height="20" fill="#8A1C7C" /><rect stroke-width="2" stroke="black" x="40" y="60" width="20" height="20" fill="#c48dbd" /><rect stroke-width="2" stroke="black" x="0" y="80" width="20" height="20" fill="#8A1C7C" /><rect stroke-width="2" stroke="black" x="20" y="80" width="20" height="20" fill="#c48dbd" /><rect stroke-width="2" stroke="black" x="40" y="80" width="20" height="20" fill="#8A1C7C" /></svg>