<svg xmlns="http://www.w3.org/2000/svg" width="142" height="132" viewBox="-1.0 -1.0 142 132"><rect stroke-width="2" stroke="black" x="0" y="0" width="20" height="20" fill="#8A1C7C" /><rect stroke-width="2" stroke="black" x="20" y="0" width="20" height="20" fill="#c48dbd" /><rect stroke-width="2" stroke="black" x="40" y="0" width="20" height="20" fill="#8A1C7C" /><rect stroke-width="2" stroke="black" x="60" y="0" width="20" height="20" fill="#c48dbd" /><rect stroke-width="2" stroke="black" x="80" y="0" width="20" height="20" fill="#8A1C7C" /><rect stroke-width="2" stroke="black" x="100" y="0" width="20" height="20" fill="#c48dbd" /><rect stroke-width="2" stroke="black" x="120" y="0" width="20" height="20" fill="#8A1C7C" /><rect stroke-width="2" stroke="black" x="0" y="20" width="20" height="20" fill="#c48dbd" /><rect stroke-width="2" stroke="black" x="20" y="20" width="20" height="20" fill="#8A1C7C" /><rect stroke-width="2" stroke="black" x="40" y="20" width="20" height="20" fill="#c48dbd" /><rect stroke-width="2" stroke="black" x="60" y="20" width="20" height="20" fill="#8A1C7C" /><rect stroke-width="2" stroke="black" x="80" y="20" width="20" height="20" fill="#c48dbd" /><rect stroke-width="2" stroke="black" x="100" y="20" width="20" height="20" fill="#8A1C7C" /><rect stroke-width="2" stroke="black" x="120" y="20" width="20" height="20" fill="#c48dbd" /><rect stroke-width="2" stroke="black" x="0" y="40" width="20" height="20" fill="#8A1C7C" /><rect stroke-width="2" stroke="black" x="20" y="40" width="20" height="20" fill="#c48dbd" /><rect stroke-width="2" stroke="black" x="40" y="40" width="20" height="20" fill="#8A1C7C" /><rect stroke-width="2" stroke="black" x="60" y="40" width="20" height="20" fill="#c48dbd" /><rect stroke-width="2" stroke="black" x="80" y="40" width="20" height="20" fill="#8A1C7C" /><rect stroke-width="2" stroke="black" x="100" y="40" width="20" height="20" fill="#c48dbd" /><rect stroke-width="2" stroke="black" x="120" y="40" width="20" height="20" fill="#8A1C7C" /><rect stroke-width="2" stroke="black" x="0" y="60" width="70" height="70" fill="#F24236" /><rect stroke-width="2" stroke="black" x="70" y="60" width="70" height="70" fill="#f8a09a" /></svg>