<svg xmlns="http://www.w3.org/2000/svg" width="152" height="142" viewBox="-1.0 -1.0 152 142"><rect stroke-width="2" stroke="black" x="0" y="0" width="20" height="20" fill="#8A1C7C" /><rect stroke-width="2" stroke="black" x="20" y="0" width="20" height="20" fill="#c48dbd" /><rect stroke-width="2" stroke="black" x="40" y="0" width="20" height="20" fill="#8A1C7C" /><rect stroke-width="2" stroke="black" x="60" y="0" width="20" height="20" fill="#c48dbd" /><rect stroke-width="2" stroke="black" x="80" y="0" width="20" height="20" fill="#8A1C7C" /><rect stroke-width="2" stroke="black" x="100" y="0" width="20" height="20" fill="#c48dbd" /><rect stroke-width="2" stroke="black" x="120" y="0" width="30" height="30" fill="#429EA6" /><rect stroke-width="2" stroke="black" x="0" y="20" width="20" height="20" fill="#c48dbd" /><rect stroke-width="2" stroke="black" x="20" y="20" width="20" height="20" fill="#8A1C7C" /><rect stroke-width="2" stroke="black" x="40" y="20" width="20" height="20" fill="#c48dbd" /><rect stroke-width="2" stroke="black" x="60" y="20" width="20" height="20" fill="#8A1C7C" /><rect stroke-width="2" stroke="black" x="80" y="20" width="20" height="20" fill="#c48dbd" /><rect stroke-width="2" stroke="black" x="100" y="20" width="20" height="20" fill="#8A1C7C" /><rect stroke-width="2" stroke="black" x="120" y="30" width="30" height="30" fill="#a0ced2" /><rect stroke-width="2" stroke="black" x="0" y="40" width="20" height="20" fill="#8A1C7C" /><rect stroke-width="2" stroke="black" x="20" y="40" width="20" height="20" fill="#c48dbd" /><rect stroke-width="2" stroke="black" x="40" y="40" width="20" height="20" fill="#8A1C7C" /><rect stroke-width="2" stroke="black" x="60" y="40" width="20" height="20" fill="#c48dbd" /><rect stroke-width="2" stroke="black" x="80" y="40" width="20" height="20" fill="#8A1C7C" /><rect stroke-width="2" stroke="black" x="100" y="40" width="20" height="20" fill="#c48dbd" /><rect stroke-width="2" stroke="black" x="0" y="60" width="30" height="30" fill="#429EA6" /><rect stroke-width="2" stroke="black" x="30" y="60" width="30" height="30" fill="#a0ced2" /><rect stroke-width="2" stroke="black" x="60" y="60" width="30" height="30" fill="#429EA6" /><rect stroke-width="2" stroke="black" x="90" y="60" width="30" height="30" fill="#a0ced2" /><rect stroke-width="2" stroke="black" x="120" y="60" width="30" height="30" fill="#429EA6" /><rect stroke-width="2" stroke="black" x="0" y="90" width="50" height="50" fill="#FCD757" /><rect stroke-width="2" stroke="black" x="50" y="90" width="50" height="50" fill="#fdebab" /><rect stroke-width="2" stroke="black" x="100" y="90" width="50" height="50" fill="#FCD757" /></svg>