<svg xmlns="http://www.w3.org/2000/svg" width="182" height="52" viewBox="-1.0 -1.0 182 52"><rect stroke-width="2" stroke="black" x="0" y="0" width="20" height="20" fill="#8A1C7C" /><rect stroke-width="2" stroke="black" x="20" y="0" width="20" height="20" fill="#c48dbd" /><rect stroke-width="2" stroke="black" x="40" y="0" width="20" height="20" fill="#8A1C7C" /><rect stroke-width="2" stroke="black" x="60" y="0" width="20" height="20" fill="#c48dbd" /><rect stroke-width="2" stroke="black" x="80" y="0" width="20" height="20" fill="#8A1C7C" /><rect stroke-width="2" stroke="black" x="100" y="0" width="20" height="20" fill="#c48dbd" /><rect stroke-width="2" stroke="black" x="120" y="0" width="20" height="20" fill="#8A1C7C" /><rect stroke-width="2" stroke="black" x="140" y="0" width="20" height="20" fill="#c48dbd" /><rect stroke-width="2" stroke="black" x="160" y="0" width="20" height="20" fill="#8A1C7C" /><rect stroke-width="2" stroke="black" x="0" y="20" width="30" height="30" fill="#429EA6" /><rect stroke-width="2" stroke="black" x="30" y="20" width="30" height="30" fill="#a0ced2" /><rect stroke-width="2" stroke="black" x="60" y="20" width="30" height="30" fill="#429EA6" /><rect stroke-width="2" stroke="black" x="90" y="20" width="30" height="30" fill="#a0ced2" /><rect stroke-width="2" stroke="black" x="120" y="20" width="30" height="30" fill="#429EA6" /><rect stroke-width="2" stroke="black" x="150" y="20" width="30" height="30" fill="#a0ced2" /></svg>